# xmcd
#
# Track frame offsets: 
#        150
#        6160
#        25310
#        41071
#        52635
#        70822
#        88809
#        108688
#        123112
#        136783
#        158652
#        179045
#        196739
#        215106
#        230527
#
# Disc length: 3360 seconds
#
# Revision: 0
# Processed by: cddbd v1.5.2PL0 Copyright (c) Steve Scherf et al.
# Submitted via: ExactAudioCopy v0.99pb5
#
DISCID=cb0d1e0f
DTITLE=Will Mercene - Tagebuch
DYEAR=2009
DGENRE=R&B
TTITLE0=Intro
TTITLE1=Bleib bei mir (feat. Boss Bisson)
TTITLE2=Star
TTITLE3=Halt durch
TTITLE4=Einfach weg
TTITLE5=Ich glaub an mich (feat. Franksta')
TTITLE6=Traumfrau
TTITLE7=Alte Zeiten
TTITLE8=Mahal kita
TTITLE9=Glaube oder Liebe
TTITLE10=Komm zu mir (feat. Shawnodeze)
TTITLE11=Wer weiﬂ (feat. Duan Fro)
TTITLE12=Reste avec moi
TTITLE13=Appell
TTITLE14=Verzeih mir (Remake)
EXTD=
EXTT0=
EXTT1=
EXTT2=
EXTT3=
EXTT4=
EXTT5=
EXTT6=
EXTT7=
EXTT8=
EXTT9=
EXTT10=
EXTT11=
EXTT12=
EXTT13=
EXTT14=
PLAYORDER=
